{
    "asset" : {
        "generator" : "Khronos glTF Blender I/O v3.3.27",
        "version" : "2.0"
    },
    "scene" : 0,
    "scenes" : [
        {
            "name" : "Scene",
            "nodes" : [
                0,
                1,
                2
            ]
        }
    ],
    "nodes" : [
        {
            "mesh" : 0,
            "name" : "Cube",
            "rotation" : [
                0.2527239918708801,
                -0.9675384163856506,
                0,
                1.5514568474372936e-07
            ],
            "scale" : [
                0.09739458560943604,
                0.1032397449016571,
                0.03973647952079773
            ],
            "translation" : [
                -0.28145596385002136,
                2.876704692840576,
                -0.012048719450831413
            ]
        },
        {
            "mesh" : 1,
            "name" : "Cube.001",
            "rotation" : [
                -0.26030296087265015,
                -0.9655269980430603,
                0,
                1.5017664622973825e-07
            ],
            "scale" : [
                0.09739458560943604,
                0.1032397523522377,
                0.03973647952079773
            ],
            "translation" : [
                0.2768538296222687,
                2.8691086769104004,
                -0.012048767879605293
            ]
        },
        {
            "mesh" : 2,
            "name" : "Plane",
            "rotation" : [
                0,
                -1,
                0,
                1.6292068494294654e-07
            ]
        }
    ],
    "animations" : [
        {
            "channels" : [
                {
                    "sampler" : 0,
                    "target" : {
                        "node" : 0,
                        "path" : "translation"
                    }
                },
                {
                    "sampler" : 1,
                    "target" : {
                        "node" : 0,
                        "path" : "rotation"
                    }
                },
                {
                    "sampler" : 2,
                    "target" : {
                        "node" : 0,
                        "path" : "scale"
                    }
                }
            ],
            "name" : "Cube",
            "samplers" : [
                {
                    "input" : 15,
                    "interpolation" : "LINEAR",
                    "output" : 16
                },
                {
                    "input" : 15,
                    "interpolation" : "LINEAR",
                    "output" : 17
                },
                {
                    "input" : 15,
                    "interpolation" : "LINEAR",
                    "output" : 18
                }
            ]
        },
        {
            "channels" : [
                {
                    "sampler" : 0,
                    "target" : {
                        "node" : 1,
                        "path" : "translation"
                    }
                },
                {
                    "sampler" : 1,
                    "target" : {
                        "node" : 1,
                        "path" : "rotation"
                    }
                },
                {
                    "sampler" : 2,
                    "target" : {
                        "node" : 1,
                        "path" : "scale"
                    }
                }
            ],
            "name" : "Cube.001",
            "samplers" : [
                {
                    "input" : 15,
                    "interpolation" : "LINEAR",
                    "output" : 19
                },
                {
                    "input" : 15,
                    "interpolation" : "LINEAR",
                    "output" : 20
                },
                {
                    "input" : 15,
                    "interpolation" : "LINEAR",
                    "output" : 21
                }
            ]
        },
        {
            "channels" : [
                {
                    "sampler" : 0,
                    "target" : {
                        "node" : 2,
                        "path" : "translation"
                    }
                },
                {
                    "sampler" : 1,
                    "target" : {
                        "node" : 2,
                        "path" : "rotation"
                    }
                },
                {
                    "sampler" : 2,
                    "target" : {
                        "node" : 2,
                        "path" : "scale"
                    }
                }
            ],
            "name" : "Crawl",
            "samplers" : [
                {
                    "input" : 15,
                    "interpolation" : "LINEAR",
                    "output" : 22
                },
                {
                    "input" : 15,
                    "interpolation" : "LINEAR",
                    "output" : 23
                },
                {
                    "input" : 15,
                    "interpolation" : "LINEAR",
                    "output" : 24
                }
            ]
        }
    ],
    "materials" : [
        {
            "doubleSided" : true,
            "name" : "Material.002",
            "pbrMetallicRoughness" : {
                "baseColorTexture" : {
                    "index" : 0
                },
                "metallicFactor" : 0
            }
        },
        {
            "doubleSided" : true,
            "name" : "Material.001",
            "pbrMetallicRoughness" : {
                "baseColorTexture" : {
                    "index" : 1
                },
                "metallicFactor" : 0
            }
        }
    ],
    "meshes" : [
        {
            "name" : "Cube.001",
            "primitives" : [
                {
                    "attributes" : {
                        "POSITION" : 0,
                        "NORMAL" : 1,
                        "TEXCOORD_0" : 2
                    },
                    "indices" : 3,
                    "material" : 0
                }
            ]
        },
        {
            "name" : "Cube.002",
            "primitives" : [
                {
                    "attributes" : {
                        "POSITION" : 4,
                        "NORMAL" : 5,
                        "TEXCOORD_0" : 6
                    },
                    "indices" : 3,
                    "material" : 0
                }
            ]
        },
        {
            "name" : "Plane",
            "primitives" : [
                {
                    "attributes" : {
                        "POSITION" : 7,
                        "NORMAL" : 8,
                        "TEXCOORD_0" : 9
                    },
                    "indices" : 10,
                    "material" : 0
                },
                {
                    "attributes" : {
                        "POSITION" : 11,
                        "NORMAL" : 12,
                        "TEXCOORD_0" : 13
                    },
                    "indices" : 14,
                    "material" : 1
                }
            ]
        }
    ],
    "textures" : [
        {
            "sampler" : 0,
            "source" : 0
        },
        {
            "sampler" : 0,
            "source" : 1
        }
    ],
    "images" : [
        {
            "mimeType" : "image/jpeg",
            "name" : "fur",
            "uri" : "fur.jpg"
        },
        {
            "mimeType" : "image/jpeg",
            "name" : "catface",
            "uri" : "catface.jpg"
        }
    ],
    "accessors" : [
        {
            "bufferView" : 0,
            "componentType" : 5126,
            "count" : 29,
            "max" : [
                1,
                1.4829224348068237,
                1.9526214599609375
            ],
            "min" : [
                -1,
                -1,
                -1
            ],
            "type" : "VEC3"
        },
        {
            "bufferView" : 1,
            "componentType" : 5126,
            "count" : 29,
            "type" : "VEC3"
        },
        {
            "bufferView" : 2,
            "componentType" : 5126,
            "count" : 29,
            "type" : "VEC2"
        },
        {
            "bufferView" : 3,
            "componentType" : 5123,
            "count" : 96,
            "type" : "SCALAR"
        },
        {
            "bufferView" : 4,
            "componentType" : 5126,
            "count" : 29,
            "max" : [
                1,
                1.4829224348068237,
                1.9526214599609375
            ],
            "min" : [
                -1,
                -1,
                -1
            ],
            "type" : "VEC3"
        },
        {
            "bufferView" : 5,
            "componentType" : 5126,
            "count" : 29,
            "type" : "VEC3"
        },
        {
            "bufferView" : 6,
            "componentType" : 5126,
            "count" : 29,
            "type" : "VEC2"
        },
        {
            "bufferView" : 7,
            "componentType" : 5126,
            "count" : 1403,
            "max" : [
                1.9070510864257812,
                2.8947746753692627,
                1.7722461223602295
            ],
            "min" : [
                -1.9070510864257812,
                -0.0752144381403923,
                -0.4845609664916992
            ],
            "type" : "VEC3"
        },
        {
            "bufferView" : 8,
            "componentType" : 5126,
            "count" : 1403,
            "type" : "VEC3"
        },
        {
            "bufferView" : 9,
            "componentType" : 5126,
            "count" : 1403,
            "type" : "VEC2"
        },
        {
            "bufferView" : 10,
            "componentType" : 5123,
            "count" : 4944,
            "type" : "SCALAR"
        },
        {
            "bufferView" : 11,
            "componentType" : 5126,
            "count" : 36,
            "max" : [
                0.355112761259079,
                2.87080717086792,
                -0.0060768346302211285
            ],
            "min" : [
                -0.355112761259079,
                2.257899522781372,
                -0.3629145920276642
            ],
            "type" : "VEC3"
        },
        {
            "bufferView" : 12,
            "componentType" : 5126,
            "count" : 36,
            "type" : "VEC3"
        },
        {
            "bufferView" : 13,
            "componentType" : 5126,
            "count" : 36,
            "type" : "VEC2"
        },
        {
            "bufferView" : 14,
            "componentType" : 5123,
            "count" : 72,
            "type" : "SCALAR"
        },
        {
            "bufferView" : 15,
            "componentType" : 5126,
            "count" : 51,
            "max" : [
                2.0833333333333335
            ],
            "min" : [
                0
            ],
            "type" : "SCALAR"
        },
        {
            "bufferView" : 16,
            "componentType" : 5126,
            "count" : 51,
            "type" : "VEC3"
        },
        {
            "bufferView" : 17,
            "componentType" : 5126,
            "count" : 51,
            "type" : "VEC4"
        },
        {
            "bufferView" : 18,
            "componentType" : 5126,
            "count" : 51,
            "type" : "VEC3"
        },
        {
            "bufferView" : 19,
            "componentType" : 5126,
            "count" : 51,
            "type" : "VEC3"
        },
        {
            "bufferView" : 20,
            "componentType" : 5126,
            "count" : 51,
            "type" : "VEC4"
        },
        {
            "bufferView" : 21,
            "componentType" : 5126,
            "count" : 51,
            "type" : "VEC3"
        },
        {
            "bufferView" : 22,
            "componentType" : 5126,
            "count" : 51,
            "type" : "VEC3"
        },
        {
            "bufferView" : 23,
            "componentType" : 5126,
            "count" : 51,
            "type" : "VEC4"
        },
        {
            "bufferView" : 24,
            "componentType" : 5126,
            "count" : 51,
            "type" : "VEC3"
        }
    ],
    "bufferViews" : [
        {
            "buffer" : 0,
            "byteLength" : 348,
            "byteOffset" : 0,
            "target" : 34962
        },
        {
            "buffer" : 0,
            "byteLength" : 348,
            "byteOffset" : 348,
            "target" : 34962
        },
        {
            "buffer" : 0,
            "byteLength" : 232,
            "byteOffset" : 696,
            "target" : 34962
        },
        {
            "buffer" : 0,
            "byteLength" : 192,
            "byteOffset" : 928,
            "target" : 34963
        },
        {
            "buffer" : 0,
            "byteLength" : 348,
            "byteOffset" : 1120,
            "target" : 34962
        },
        {
            "buffer" : 0,
            "byteLength" : 348,
            "byteOffset" : 1468,
            "target" : 34962
        },
        {
            "buffer" : 0,
            "byteLength" : 232,
            "byteOffset" : 1816,
            "target" : 34962
        },
        {
            "buffer" : 0,
            "byteLength" : 16836,
            "byteOffset" : 2048,
            "target" : 34962
        },
        {
            "buffer" : 0,
            "byteLength" : 16836,
            "byteOffset" : 18884,
            "target" : 34962
        },
        {
            "buffer" : 0,
            "byteLength" : 11224,
            "byteOffset" : 35720,
            "target" : 34962
        },
        {
            "buffer" : 0,
            "byteLength" : 9888,
            "byteOffset" : 46944,
            "target" : 34963
        },
        {
            "buffer" : 0,
            "byteLength" : 432,
            "byteOffset" : 56832,
            "target" : 34962
        },
        {
            "buffer" : 0,
            "byteLength" : 432,
            "byteOffset" : 57264,
            "target" : 34962
        },
        {
            "buffer" : 0,
            "byteLength" : 288,
            "byteOffset" : 57696,
            "target" : 34962
        },
        {
            "buffer" : 0,
            "byteLength" : 144,
            "byteOffset" : 57984,
            "target" : 34963
        },
        {
            "buffer" : 0,
            "byteLength" : 204,
            "byteOffset" : 58128
        },
        {
            "buffer" : 0,
            "byteLength" : 612,
            "byteOffset" : 58332
        },
        {
            "buffer" : 0,
            "byteLength" : 816,
            "byteOffset" : 58944
        },
        {
            "buffer" : 0,
            "byteLength" : 612,
            "byteOffset" : 59760
        },
        {
            "buffer" : 0,
            "byteLength" : 612,
            "byteOffset" : 60372
        },
        {
            "buffer" : 0,
            "byteLength" : 816,
            "byteOffset" : 60984
        },
        {
            "buffer" : 0,
            "byteLength" : 612,
            "byteOffset" : 61800
        },
        {
            "buffer" : 0,
            "byteLength" : 612,
            "byteOffset" : 62412
        },
        {
            "buffer" : 0,
            "byteLength" : 816,
            "byteOffset" : 63024
        },
        {
            "buffer" : 0,
            "byteLength" : 612,
            "byteOffset" : 63840
        }
    ],
    "samplers" : [
        {
            "magFilter" : 9729,
            "minFilter" : 9987
        }
    ],
    "buffers" : [
        {
            "byteLength" : 64452,
            "uri" : "enemypost.bin"
        }
    ]
}
